<?xml version="1.0" encoding="UTF-8" standalone="no"?>
<svg width="120" height="120" viewBox="0 0 120 120" fill="none" xmlns="http://www.w3.org/2000/svg">
    <!-- 主体 -->
    <rect x="20" y="20" width="80" height="80" rx="10" fill="#5442b9" stroke="#333333"
        stroke-width="2" />

    <!-- 屏幕 -->
    <rect x="30" y="30" width="60" height="40" rx="2" fill="#222222" stroke="#111111"
        stroke-width="1" />
    <rect x="33" y="33" width="54" height="34" rx="1" fill="#98FB98" />

    <!-- 十字方向键 -->
    <path d="M35 83H45V93H35V83Z" fill="#333333" />
    <path d="M38 80V83H42V80H38Z" fill="#333333" />
    <path d="M38 93V96H42V93H38Z" fill="#333333" />
    <path d="M32 83V87H35V83H32Z" fill="#333333" />
    <path d="M45 83V87H48V83H45Z" fill="#333333" />

    <!-- A B按钮 -->
    <circle cx="75" cy="85" r="5" fill="#FF6347" />
    <text x="75" y="88" font-family="Arial" font-size="6" font-weight="bold" fill="white"
        text-anchor="middle">A</text>
    <circle cx="65" cy="90" r="5" fill="#4169E1" />
    <text x="65" y="93" font-family="Arial" font-size="6" font-weight="bold" fill="white"
        text-anchor="middle">B</text>

    <!-- Start Select按钮 -->
    <rect x="45" y="75" width="12" height="4" rx="2" fill="#333333" />
    <rect x="60" y="75" width="12" height="4" rx="2" fill="#333333" />

    <!-- Nintendo标志 -->
    <text x="60" y="85" font-family="Arial" font-size="6" font-weight="bold" fill="white"
        text-anchor="middle">GBA</text>
</svg> 