<?xml version="1.0" encoding="UTF-8" standalone="no"?>
<svg width="100" height="100" viewBox="0 0 100 100" fill="none" xmlns="http://www.w3.org/2000/svg">
    <!-- 背景 -->
    <rect width="100" height="100" rx="12" fill="#2D2D2D" />

    <!-- 游戏手柄形状 -->
    <path
        d="M20 45C20 42.7909 21.7909 41 24 41H76C78.2091 41 80 42.7909 80 45V65C80 67.2091 78.2091 69 76 69H24C21.7909 69 20 67.2091 20 65V45Z"
        fill="#0F0F0F" />

    <!-- D-Pad -->
    <rect x="25" y="48" width="20" height="8" rx="2" fill="#E52521" />
    <rect x="31" y="42" width="8" height="20" rx="2" fill="#E52521" />

    <!-- 按钮 -->
    <circle cx="65" cy="55" r="5" fill="#F7B51C" />
    <circle cx="75" cy="55" r="5" fill="#F7B51C" />
    <circle cx="70" cy="50" r="5" fill="#F7B51C" />
    <circle cx="70" cy="60" r="5" fill="#F7B51C" />

    <!-- 像素风格的文字效果 -->
    <path d="M30 78H34V82H30V78Z" fill="#F7B51C" /> <!-- G -->
    <path d="M34 78H38V82H34V78Z" fill="#F7B51C" /> <!-- A -->
    <path d="M38 78H42V82H38V78Z" fill="#F7B51C" /> <!-- M -->
    <path d="M42 78H46V82H42V78Z" fill="#F7B51C" /> <!-- E -->

    <path d="M52 78H56V82H52V78Z" fill="#0073BC" /> <!-- R -->
    <path d="M56 78H60V82H56V78Z" fill="#0073BC" /> <!-- E -->
    <path d="M60 78H64V82H60V78Z" fill="#0073BC" /> <!-- T -->
    <path d="M64 78H68V82H64V78Z" fill="#0073BC" /> <!-- R -->
    <path d="M68 78H72V82H68V78Z" fill="#0073BC" /> <!-- O -->

    <!-- 装饰元素 -->
    <rect x="24" y="28" width="52" height="2" rx="1" fill="#656565" />
    <rect x="24" y="32" width="40" height="2" rx="1" fill="#656565" />

    <!-- 扫描线效果 -->
    <rect opacity="0.1" x="0" y="10" width="100" height="1" fill="white" />
    <rect opacity="0.1" x="0" y="20" width="100" height="1" fill="white" />
    <rect opacity="0.1" x="0" y="30" width="100" height="1" fill="white" />
    <rect opacity="0.1" x="0" y="40" width="100" height="1" fill="white" />
    <rect opacity="0.1" x="0" y="50" width="100" height="1" fill="white" />
    <rect opacity="0.1" x="0" y="60" width="100" height="1" fill="white" />
    <rect opacity="0.1" x="0" y="70" width="100" height="1" fill="white" />
    <rect opacity="0.1" x="0" y="80" width="100" height="1" fill="white" />
    <rect opacity="0.1" x="0" y="90" width="100" height="1" fill="white" />
</svg> 